:SAMPLES-PER-SECOND 30
:FULLY-SPECIFIED
:DEGREES
143
root  -83.425 41.8367 -8.3546 -159.024 -89.1059 159.523
RightUpLeg  -0.714934 -7.8559 -5.48995
RightLeg  1.76707 -5.50497 3.3795
RightFoot  0.793595 0.0312325 -0.241893
RightToes  0.000482159 0.542163 -0.142577
Spine  7.52208 -1.06916 -5.06455
Spine1  -8.63949 -1.88362 5.76962
HEad  -4.36724 -12.3597 -1.97846
LeftShoulder1  0.174077 1.62628 -0.776166
LeftArm  -9.78942 13.6953 -1.41329
LeftForeArm  0.534296 -2.46687 -4.54238
LeftHand  -0.25398 0.0180481 5.50724
RightShoulder  0.111448 -1.04208 -4.44355
RightArm  3.46744 -7.3269 0.334764
RightForeArm  -24.8445 -4.41603 11.7005
RightHand  -1.50076 6.55522 -14.9292
LeftUpLeg  -1.67858 5.73464 4.71281
LeftLeg  0.55864 12.035 -3.92046
LeftFoot  0.906998 -0.0544106 0.452233
LeftToes  1.06246e-005 4.65855e-005 -8.18504e-006
144
root  -83.4819 41.8373 -8.29465 -169.545 -88.4968 170.24
RightUpLeg  -0.791624 -7.75047 -5.4204
RightLeg  1.45679 -5.01582 3.36011
RightFoot  0.931048 0.0168247 -0.108567
RightToes  0.000482159 0.542163 -0.142577
Spine  7.62672 -1.09726 -5.02638
Spine1  -8.91778 -1.90243 5.77664
HEad  -3.97365 -12.1587 -2.13486
LeftShoulder1  0.172653 1.66094 -0.879771
LeftArm  -9.93376 13.9576 -1.61203
LeftForeArm  -0.927772 -2.45199 -4.51871
LeftHand  -0.25398 0.0180481 5.50724
RightShoulder  0.126792 -0.78546 -4.27743
RightArm  3.32091 -6.95092 -0.187688
RightForeArm  -21.9731 -4.89424 11.5383
RightHand  -1.44466 7.10873 -13.7853
LeftUpLeg  -1.81291 5.89507 4.79209
LeftLeg  0.812727 12.5647 -3.97783
LeftFoot  0.660391 -0.0596187 0.509349
LeftToes  1.06246e-005 4.65855e-005 -8.18504e-006
145
root  -83.5284 41.8378 -8.22066 -173.372 -87.9967 174.167
RightUpLeg  -0.792678 -7.74981 -5.43999
RightLeg  1.20555 -4.53131 3.3755
RightFoot  1.04742 0.0215939 -0.222047
RightToes  0.000482159 0.542163 -0.142577
Spine  7.73499 -1.13467 -4.79802
Spine1  -9.05638 -1.91956 5.68539
HEad  -3.63586 -11.728 -2.35543
LeftShoulder1  0.192963 1.54204 -1.40598
LeftArm  -10.5031 14.5561 -1.85568
LeftForeArm  -1.07848 -2.98886 -4.28994
LeftHand  -0.25398 0.0180481 5.50724
RightShoulder  0.144621 -0.559092 -3.99002
RightArm  2.70485 -6.67566 -0.319439
RightForeArm  -19.5629 -5.13869 11.2185
RightHand  -1.47854 7.82561 -13.3704
LeftUpLeg  -1.78624 6.0502 4.8291
LeftLeg  0.860885 12.9189 -4.11845
LeftFoot  0.51255 -0.0677846 0.614892
LeftToes  1.06246e-005 4.65855e-005 -8.18504e-006
146
root  -83.5598 41.8383 -8.15455 -173.679 -87.5036 174.563
RightUpLeg  -0.937736 -7.83967 -5.57339
RightLeg  1.22769 -3.93087 3.39999
RightFoot  1.10216 0.0231388 -0.265558
RightToes  0.000482159 0.542163 -0.142577
Spine  7.90689 -1.0673 -4.85027
Spine1  -9.2759 -1.86947 5.86766
HEad  -3.34019 -11.0617 -2.60708
LeftShoulder1  0.230157 1.28412 -2.03201
LeftArm  -9.79859 14.8062 -2.18472
LeftForeArm  -2.15416 -2.77473 -4.58982
LeftHand  -0.25398 0.0180481 5.50724
RightShoulder  0.165166 -0.242952 -3.81669
RightArm  2.5663 -6.11987 -0.106223
RightForeArm  -18.0988 -5.96666 11.1687
RightHand  -1.44016 7.795 -13.0666
LeftUpLeg  -1.68235 6.09005 4.7545
LeftLeg  0.691225 13.3356 -4.26206
LeftFoot  0.521252 -0.0728386 0.673812
LeftToes  1.06246e-005 4.65855e-005 -8.18504e-006
147
root  -83.5837 41.8387 -8.10645 -173.231 -87.0696 174.235
RightUpLeg  -1.15248 -7.91805 -5.71119
RightLeg  1.32953 -3.40555 3.42524
RightFoot  1.1219 0.0129417 -0.111014
RightToes  0.000482159 0.542163 -0.142577
Spine  8.01448 -1.00182 -5.10126
Spine1  -9.47255 -1.83156 6.08752
HEad  -3.09427 -10.0064 -2.64932
LeftShoulder1  0.261329 1.06363 -2.43195
LeftArm  -8.03098 14.6422 -2.63408
LeftForeArm  -4.75126 -1.96005 -5.39331
LeftHand  -0.25398 0.0180481 5.50724
RightShoulder  0.202908 0.150971 -3.26351
RightArm  2.69134 -5.32706 0.00468881
RightForeArm  -16.4729 -7.03599 11.2615
RightHand  -1.38379 7.7311 -12.6389
LeftUpLeg  -1.66909 6.02345 4.62766
LeftLeg  0.583082 13.8656 -4.28854
LeftFoot  0.527523 -0.0700793 0.612317
LeftToes  1.06246e-005 4.65855e-005 -8.18504e-006
148
root  -83.6124 41.839 -8.06394 -174.052 -86.7698 175.209
RightUpLeg  -1.28847 -7.90802 -5.73269
RightLeg  1.26101 -3.15023 3.44567
RightFoot  1.16563 0.00719905 -0.0141245
RightToes  0.000482159 0.542163 -0.142577
Spine  7.86034 -1.04017 -5.05457
Spine1  -9.41228 -1.84898 5.92161
HEad  -2.92137 -8.61222 -2.39674
LeftShoulder1  0.282242 0.93664 -2.75716
LeftArm  -6.94441 14.6229 -3.02531
LeftForeArm  -6.58207 -1.78105 -5.93499
LeftHand  -0.25398 0.0180481 5.50724
RightShoulder  0.2563 0.503992 -2.29486
RightArm  2.31974 -4.8589 -0.0781207
RightForeArm  -13.7406 -7.4487 11.077
RightHand  -1.46702 8.71115 -12.4918
LeftUpLeg  -1.78757 5.94934 4.55042
LeftLeg  0.648946 14.31 -4.20547
LeftFoot  0.469692 -0.0676634 0.55646
LeftToes  1.06246e-005 4.65855e-005 -8.18504e-006
149
root  -83.649 41.8392 -8.01927 -175.429 -86.5224 176.754
RightUpLeg  -1.40021 -7.84911 -5.67955
RightLeg  1.12655 -3.0089 3.44264
RightFoot  1.23785 0.0159739 -0.135323
RightToes  0.000482159 0.542163 -0.142577
Spine  7.50536 -1.07962 -4.70717
Spine1  -9.20485 -1.83558 5.56472
HEad  -2.80564 -7.1867 -2.0693
LeftShoulder1  0.313076 0.761179 -3.23556
LeftArm  -7.19561 14.9783 -3.25233
LeftForeArm  -6.50079 -2.41893 -5.85203
LeftHand  -0.25398 0.0180481 5.50724
RightShoulder  0.301217 0.817056 -1.63274
RightArm  1.59406 -4.93835 -0.0169403
RightForeArm  -10.5827 -7.40537 10.6293
RightHand  -1.62212 10.1372 -12.5629
LeftUpLeg  -1.91671 5.91038 4.51431
LeftLeg  0.704372 14.6119 -4.1356
LeftFoot  0.44904 -0.075126 0.653712
LeftToes  1.06246e-005 4.65855e-005 -8.18504e-006
150
root  -83.6833 41.8395 -7.98292 -175.495 -86.2408 176.948
RightUpLeg  -1.57144 -7.83678 -5.69415
RightLeg  1.1684 -2.74929 3.40791
RightFoot  1.27591 0.0264572 -0.27992
RightToes  0.000482159 0.542163 -0.142577
Spine  7.2654 -0.99957 -4.57304
Spine1  -9.1617 -1.7424 5.55415
HEad  -2.78347 -5.97748 -1.85563
LeftShoulder1  0.362616 0.450607 -3.77273
LeftArm  -7.75615 15.3463 -3.35912
LeftForeArm  -5.8806 -2.97091 -5.60567
LeftHand  -0.25398 0.0180481 5.50724
RightShoulder  0.323763 1.13567 -1.62474
RightArm  1.04321 -5.05272 0.314643
RightForeArm  -7.75996 -7.48626 10.2996
RightHand  -1.62642 10.7614 -12.1701
LeftUpLeg  -1.91493 5.85411 4.4307
LeftLeg  0.580944 14.9203 -4.1458
LeftFoot  0.513868 -0.0868664 0.82143
LeftToes  1.06246e-005 4.65855e-005 -8.18504e-006
151
root  -83.7045 41.8396 -7.96155 -174.257 -85.9939 175.734
RightUpLeg  -1.70245 -7.89531 -5.81373
RightLeg  1.34207 -2.43902 3.3695
RightFoot  1.25435 0.0255346 -0.248442
RightToes  0.000482159 0.542163 -0.142577
Spine  7.32233 -0.85188 -4.75842
Spine1  -9.3388 -1.6243 5.84835
HEad  -2.91176 -5.02222 -1.67716
LeftShoulder1  0.422951 0.0558847 -4.22453
LeftArm  -7.87729 15.5502 -3.29132
LeftForeArm  -5.70946 -3.18465 -5.53795
LeftHand  -0.25398 0.0180481 5.50724
RightShoulder  0.333458 1.38375 -1.8044
RightArm  2.09926 -5.05329 0.850696
RightForeArm  -12.9897 -6.71122 11.0168
RightHand  -1.98709 10.6164 -14.5687
LeftUpLeg  -1.77714 5.75358 4.28753
LeftLeg  0.360716 15.2586 -4.1874
LeftFoot  0.587774 -0.0909612 0.885074
LeftToes  1.06246e-005 4.65855e-005 -8.18504e-006
152
root  -83.7122 41.8392 -7.94634 -173.189 -85.8795 174.623
RightUpLeg  -1.69909 -7.96038 -5.93938
RightLeg  1.41588 -2.2822 3.34993
RightFoot  1.22593 0.0176973 -0.114828
RightToes  0.000482159 0.542163 -0.142577
Spine  7.49577 -0.745657 -4.82694
Spine1  -9.51097 -1.52706 5.93635
HEad  -3.1193 -4.25545 -1.38947
LeftShoulder1  0.485476 -0.346324 -4.63154
LeftArm  -7.80906 15.7802 -2.95428
LeftForeArm  -5.42978 -3.54279 -5.53511
LeftHand  -0.25398 0.0180481 5.50724
RightShoulder  0.342661 1.50201 -1.78024
RightArm  6.6804 -5.5241 1.62685
RightForeArm  -36.3535 -3.76471 13.7506
RightHand  -3.31304 10.4496 -24.4859
LeftUpLeg  -1.65433 5.66396 4.16438
LeftLeg  0.24316 15.4749 -4.1971
LeftFoot  0.599697 -0.0885147 0.847049
LeftToes  1.06246e-005 4.65855e-005 -8.18504e-006
153
root  -83.7125 41.8371 -7.93091 -172.851 -85.8814 174.281
RightUpLeg  -1.66672 -7.98127 -5.99598
RightLeg  1.36581 -2.28217 3.34726
RightFoot  1.22275 0.0128384 -0.0364075
RightToes  0.000482159 0.542163 -0.142577
Spine  7.58312 -0.770262 -5.03729
Spine1  -9.66321 -1.58235 6.20816
HEad  -3.18947 -3.31423 -1.03079
LeftShoulder1  0.504852 -0.487981 -4.67628
LeftArm  -7.70025 16.3799 -2.83482
LeftForeArm  -5.16605 -4.2483 -5.54754
LeftHand  -0.25398 0.0180481 5.50724
RightShoulder  0.400638 2.13931 -1.4889
RightArm  6.96143 -5.44975 1.20245
RightForeArm  -33.8988 -4.52894 13.7266
RightHand  -3.16032 10.4112 -23.36
LeftUpLeg  -1.67265 5.62639 4.10452
LeftLeg  0.277331 15.52 -4.17658
LeftFoot  0.562449 -0.086418 0.814461
LeftToes  1.06246e-005 4.65855e-005 -8.18504e-006
154
root  -83.7071 41.8351 -7.92172 -172.664 -85.9266 174.152
RightUpLeg  -1.73681 -7.97661 -6.00854
RightLeg  1.37614 -2.30612 3.34091
RightFoot  1.20603 0.0124783 -0.0308159
RightToes  0.000482159 0.542163 -0.142577
Spine  7.54463 -0.819035 -5.33464
Spine1  -9.77022 -1.67302 6.59538
HEad  -3.22675 -2.35002 -0.599241
LeftShoulder1  0.503906 -0.51787 -4.54576
LeftArm  -6.95563 16.6089 -2.87099
LeftForeArm  -6.43799 -4.41813 -5.88392
LeftHand  -0.25398 0.0180481 5.50724
RightShoulder  0.472215 2.96859 -1.25908
RightArm  7.65343 -5.43727 1.00508
RightForeArm  -35.0657 -5.40583 14.0822
RightHand  -3.40073 11.213 -23.9034
LeftUpLeg  -1.78636 5.61325 4.07601
LeftLeg  0.346396 15.5025 -4.15958
LeftFoot  0.521307 -0.0849658 0.791889
LeftToes  1.06246e-005 4.65855e-005 -8.18504e-006
155
root  -83.6899 41.833 -7.92522 -172.345 -85.9937 173.882
RightUpLeg  -1.87512 -7.9715 -6.00457
RightLeg  1.51422 -2.33932 3.32457
RightFoot  1.15185 0.0134806 -0.0463779
RightToes  0.000482159 0.542163 -0.142577
Spine  7.48459 -0.804267 -5.46872
Spine1  -9.76596 -1.67727 6.76473
HEad  -3.52563 -1.59759 -0.0779751
LeftShoulder1  0.520009 -0.636669 -4.58148
LeftArm  -5.60532 16.0861 -2.76149
LeftForeArm  -9.08788 -3.87318 -6.54442
LeftHand  -0.25398 0.0180481 5.50724
RightShoulder  0.507277 3.34382 -1.1307
RightArm  8.16809 -5.69548 0.95641
RightForeArm  -35.8758 -5.42007 14.2783
RightHand  -3.50186 11.3431 -24.413
LeftUpLeg  -1.89738 5.60492 4.0634
LeftLeg  0.398166 15.4699 -4.15022
LeftFoot  0.487446 -0.0816303 0.740048
LeftToes  1.06246e-005 4.65855e-005 -8.18504e-006
